<?xml version="1.0" encoding="UTF-8" standalone="no"?>
<!-- Created with Inkscape (http://www.inkscape.org/) -->

<svg
   xmlns:dc="http://purl.org/dc/elements/1.1/"
   xmlns:cc="http://creativecommons.org/ns#"
   xmlns:rdf="http://www.w3.org/1999/02/22-rdf-syntax-ns#"
   xmlns:svg="http://www.w3.org/2000/svg"
   xmlns="http://www.w3.org/2000/svg"
   xmlns:sodipodi="http://sodipodi.sourceforge.net/DTD/sodipodi-0.dtd"
   xmlns:inkscape="http://www.inkscape.org/namespaces/inkscape"
   width="250mm"
   height="300mm"
   viewBox="0 0 250 300"
   version="1.1"
   id="svg8"
   inkscape:version="0.92.4 (5da689c313, 2019-01-14)"
   sodipodi:docname="Fenrih.svg">
  <defs
     id="defs2">
    <clipPath
       clipPathUnits="userSpaceOnUse"
       id="clipPath1020">
      <path
         id="path1022"
         style="font-size:105.83333588px;stroke-width:0.26458332"
         d="M 122.64885,73.044671 H 83.736492 v 21.704102 h 33.434648 v 9.095057 H 83.736492 v 37.052 H 73.504557 V 63.949619 H 122.64885 Z M 55.986249,140.89583 20,137 25.600505,133.04101 H 35.677409 V 71.804437 H 25.600505 v -7.854818 h 30.385744 v 7.854818 H 45.909344 v 61.236573 h 10.076905 z"
         inkscape:connector-curvature="0" />
    </clipPath>
    <clipPath
       clipPathUnits="userSpaceOnUse"
       id="clipPath1024">
      <path
         id="path1026"
         style="font-size:105.83333588px;stroke-width:0.26458332"
         d="M 122.64885,73.044671 H 83.736492 v 21.704102 h 33.434648 v 9.095057 H 83.736492 v 37.052 H 73.504557 V 63.949619 H 122.64885 Z M 55.986249,140.89583 20,137 25.600505,133.04101 H 35.677409 V 71.804437 H 25.600505 v -7.854818 h 30.385744 v 7.854818 H 45.909344 v 61.236573 h 10.076905 z"
         inkscape:connector-curvature="0" />
    </clipPath>
    <clipPath
       clipPathUnits="userSpaceOnUse"
       id="clipPath1028">
      <path
         id="path1030"
         style="font-size:105.83333588px;stroke-width:0.26458332"
         d="M 122.64885,73.044671 H 83.736492 v 21.704102 h 33.434648 v 9.095057 H 83.736492 v 37.052 H 73.504557 V 63.949619 H 122.64885 Z M 55.986249,140.89583 20,137 25.600505,133.04101 H 35.677409 V 71.804437 H 25.600505 v -7.854818 h 30.385744 v 7.854818 H 45.909344 v 61.236573 h 10.076905 z"
         inkscape:connector-curvature="0" />
    </clipPath>
    <clipPath
       clipPathUnits="userSpaceOnUse"
       id="clipPath1032">
      <path
         id="path1034"
         style="font-size:105.83333588px;stroke-width:0.26458332"
         d="M 122.64885,73.044671 H 83.736492 v 21.704102 h 33.434648 v 9.095057 H 83.736492 v 37.052 H 73.504557 V 63.949619 H 122.64885 Z M 55.986249,140.89583 20,137 25.600505,133.04101 H 35.677409 V 71.804437 H 25.600505 v -7.854818 h 30.385744 v 7.854818 H 45.909344 v 61.236573 h 10.076905 z"
         inkscape:connector-curvature="0" />
    </clipPath>
    <clipPath
       clipPathUnits="userSpaceOnUse"
       id="clipPath1036">
      <path
         id="path1038"
         style="font-size:105.83333588px;stroke-width:0.26458332"
         d="M 122.64885,73.044671 H 83.736492 v 21.704102 h 33.434648 v 9.095057 H 83.736492 v 37.052 H 73.504557 V 63.949619 H 122.64885 Z M 55.986249,140.89583 20,137 25.600505,133.04101 H 35.677409 V 71.804437 H 25.600505 v -7.854818 h 30.385744 v 7.854818 H 45.909344 v 61.236573 h 10.076905 z"
         inkscape:connector-curvature="0" />
    </clipPath>
    <clipPath
       clipPathUnits="userSpaceOnUse"
       id="clipPath1040">
      <path
         id="path1042"
         style="font-size:105.83333588px;stroke-width:0.26458332"
         d="M 122.64885,73.044671 H 83.736492 v 21.704102 h 33.434648 v 9.095057 H 83.736492 v 37.052 H 73.504557 V 63.949619 H 122.64885 Z M 55.986249,140.89583 20,137 25.600505,133.04101 H 35.677409 V 71.804437 H 25.600505 v -7.854818 h 30.385744 v 7.854818 H 45.909344 v 61.236573 h 10.076905 z"
         inkscape:connector-curvature="0" />
    </clipPath>
    <clipPath
       clipPathUnits="userSpaceOnUse"
       id="clipPath1044">
      <path
         id="path1046"
         style="font-size:105.83333588px;stroke-width:0.26458332"
         d="M 122.64885,73.044671 H 83.736492 v 21.704102 h 33.434648 v 9.095057 H 83.736492 v 37.052 H 73.504557 V 63.949619 H 122.64885 Z M 55.986249,140.89583 20,137 25.600505,133.04101 H 35.677409 V 71.804437 H 25.600505 v -7.854818 h 30.385744 v 7.854818 H 45.909344 v 61.236573 h 10.076905 z"
         inkscape:connector-curvature="0" />
    </clipPath>
  </defs>
  <sodipodi:namedview
     id="base"
     pagecolor="#ffffff"
     bordercolor="#666666"
     borderopacity="1.0"
     inkscape:pageopacity="0.0"
     inkscape:pageshadow="2"
     inkscape:zoom="1.4142136"
     inkscape:cx="530.7052"
     inkscape:cy="733.09131"
     inkscape:document-units="mm"
     inkscape:current-layer="text972"
     showgrid="true"
     inkscape:window-width="1920"
     inkscape:window-height="986"
     inkscape:window-x="-11"
     inkscape:window-y="-11"
     inkscape:window-maximized="1">
    <inkscape:grid
       empspacing="10"
       units="mm"
       id="grid10"
       type="xygrid" />
  </sodipodi:namedview>
  <metadata
     id="metadata5">
    <rdf:RDF>
      <cc:Work
         rdf:about="">
        <dc:format>image/svg+xml</dc:format>
        <dc:type
           rdf:resource="http://purl.org/dc/dcmitype/StillImage" />
        <dc:title></dc:title>
      </cc:Work>
    </rdf:RDF>
  </metadata>
  <g
     inkscape:label="layer"
     inkscape:groupmode="layer"
     id="layer1"
     transform="translate(0,3)">
    <path
       style="fill:none;stroke:#808080;stroke-width:0.26458332px;stroke-linecap:butt;stroke-linejoin:miter;stroke-opacity:1"
       d="m 50,27.000002 -50,40 V 127 l 50,40"
       id="path12"
       inkscape:connector-curvature="0"
       sodipodi:nodetypes="cccc"
       clip-path="url(#clipPath1044)" />
    <path
       inkscape:label="krivulja 1"
       sodipodi:nodetypes="cc"
       inkscape:connector-curvature="0"
       id="krivulja_1"
       d="M 50,27.000002 C 0,66.812502 0,127.1375 50,167"
       style="fill:none;stroke:#808080;stroke-width:2.11666656;stroke-linecap:butt;stroke-linejoin:miter;stroke-miterlimit:4;stroke-dasharray:none;stroke-opacity:1"
       clip-path="url(#clipPath1040)" />
    <path
       style="fill:none;stroke:#7f7f7f;stroke-width:0.26458332px;stroke-linecap:butt;stroke-linejoin:miter;stroke-opacity:1"
       d="M 190,27.000002 C 187.35417,29.645835 90,107 90,107"
       id="path16"
       inkscape:connector-curvature="0"
       sodipodi:nodetypes="cc"
       clip-path="url(#clipPath1036)" />
    <path
       style="display:inline;fill:none;stroke:#808080;stroke-width:0.26458332px;stroke-linecap:butt;stroke-linejoin:miter;stroke-opacity:1"
       d="m 240,117 c -0.0229,0.0833 -50,50 -50,50"
       id="path18"
       inkscape:connector-curvature="0"
       sodipodi:nodetypes="cc"
       clip-path="url(#clipPath1032)" />
    <path
       inkscape:label="krivulja2"
       sodipodi:nodetypes="cc"
       inkscape:connector-curvature="0"
       id="krivulja_2"
       d="M 190,27.000002 C 89.958333,106.5 239.97708,117.08334 190,167"
       style="fill:none;stroke:#343434;stroke-width:0.70555556;stroke-linecap:butt;stroke-linejoin:miter;stroke-miterlimit:4;stroke-dasharray:none;stroke-opacity:1"
       clip-path="url(#clipPath1028)" />
    <g
       id="g916"
       inkscape:label="blend"
       clip-path="url(#clipPath1024)">
      <path
         id="path836"
         style="opacity:1;fill:none;stroke:#353535;stroke-width:0.73997289;stroke-linecap:butt;stroke-linejoin:miter;stroke-miterlimit:4;stroke-dasharray:none;stroke-opacity:1"
         d="m 186.58537,27.000002 c -98.821143,78.532008 47.53861,90.328558 0,139.999998"
         inkscape:connector-curvature="0" />
      <path
         id="path838"
         style="opacity:1;fill:none;stroke:#373737;stroke-width:0.77439022;stroke-linecap:butt;stroke-linejoin:miter;stroke-miterlimit:4;stroke-dasharray:none;stroke-opacity:1"
         d="m 183.17073,27.000002 c -97.600608,77.564018 45.10015,90.573788 0,139.999998"
         inkscape:connector-curvature="0" />
      <path
         id="path840"
         style="opacity:1;fill:none;stroke:#393939;stroke-width:0.80880761;stroke-linecap:butt;stroke-linejoin:miter;stroke-miterlimit:4;stroke-dasharray:none;stroke-opacity:1"
         d="M 179.7561,27.000002 C 83.376016,103.59604 222.41778,117.81901 179.7561,167"
         inkscape:connector-curvature="0" />
      <path
         id="path842"
         style="opacity:1;fill:none;stroke:#3b3b3b;stroke-width:0.84322494;stroke-linecap:butt;stroke-linejoin:miter;stroke-miterlimit:4;stroke-dasharray:none;stroke-opacity:1"
         d="m 176.34146,27.000002 c -95.15955,75.628048 40.22322,91.064228 0,139.999998"
         inkscape:connector-curvature="0" />
      <path
         id="path844"
         style="opacity:1;fill:none;stroke:#3d3d3d;stroke-width:0.87764227;stroke-linecap:butt;stroke-linejoin:miter;stroke-miterlimit:4;stroke-dasharray:none;stroke-opacity:1"
         d="m 172.92683,27.000002 c -93.939025,74.660058 37.78475,91.309458 0,139.999998"
         inkscape:connector-curvature="0" />
      <path
         id="path846"
         style="opacity:1;fill:none;stroke:#3f3f3f;stroke-width:0.91205961;stroke-linecap:butt;stroke-linejoin:miter;stroke-miterlimit:4;stroke-dasharray:none;stroke-opacity:1"
         d="M 169.5122,27.000002 C 76.793699,100.69207 204.85848,118.55468 169.5122,167"
         inkscape:connector-curvature="0" />
      <path
         id="path848"
         style="opacity:1;fill:none;stroke:#404040;stroke-width:0.946477;stroke-linecap:butt;stroke-linejoin:miter;stroke-miterlimit:4;stroke-dasharray:none;stroke-opacity:1"
         d="M 166.09756,27.000002 C 74.599593,99.724086 199.00538,118.7999 166.09756,167"
         inkscape:connector-curvature="0" />
      <path
         id="path850"
         style="opacity:1;fill:none;stroke:#424242;stroke-width:0.98089433;stroke-linecap:butt;stroke-linejoin:miter;stroke-miterlimit:4;stroke-dasharray:none;stroke-opacity:1"
         d="m 162.68293,27.000002 c -90.277442,71.756096 30.46935,92.045128 0,139.999998"
         inkscape:connector-curvature="0" />
      <path
         id="path852"
         style="opacity:1;fill:none;stroke:#444444;stroke-width:1.0153116;stroke-linecap:butt;stroke-linejoin:miter;stroke-miterlimit:4;stroke-dasharray:none;stroke-opacity:1"
         d="M 159.26829,27.000002 C 70.211382,97.78811 187.29918,119.29035 159.26829,167"
         inkscape:connector-curvature="0" />
      <path
         id="path854"
         style="opacity:1;fill:none;stroke:#464646;stroke-width:1.04972899;stroke-linecap:butt;stroke-linejoin:miter;stroke-miterlimit:4;stroke-dasharray:none;stroke-opacity:1"
         d="m 155.85366,27.000002 c -87.836384,69.82012 25.59242,92.535568 0,139.999998"
         inkscape:connector-curvature="0" />
      <path
         id="path856"
         style="opacity:1;fill:none;stroke:#484848;stroke-width:1.08414638;stroke-linecap:butt;stroke-linejoin:miter;stroke-miterlimit:4;stroke-dasharray:none;stroke-opacity:1"
         d="M 152.43902,27.000002 C 65.82317,95.852135 175.59299,119.7808 152.43902,167"
         inkscape:connector-curvature="0" />
      <path
         id="path858"
         style="opacity:1;fill:none;stroke:#4a4a4a;stroke-width:1.11856365;stroke-linecap:butt;stroke-linejoin:miter;stroke-miterlimit:4;stroke-dasharray:none;stroke-opacity:1"
         d="m 149.02439,27.000002 c -85.395325,67.884145 20.7155,93.026018 0,139.999998"
         inkscape:connector-curvature="0" />
      <path
         id="path860"
         style="opacity:1;fill:none;stroke:#4c4c4c;stroke-width:1.15298104;stroke-linecap:butt;stroke-linejoin:miter;stroke-miterlimit:4;stroke-dasharray:none;stroke-opacity:1"
         d="m 145.60976,27.000002 c -84.174801,66.916157 18.27703,93.271238 0,139.999998"
         inkscape:connector-curvature="0" />
      <path
         id="path862"
         style="opacity:1;fill:none;stroke:#4d4d4d;stroke-width:1.18739843;stroke-linecap:butt;stroke-linejoin:miter;stroke-miterlimit:4;stroke-dasharray:none;stroke-opacity:1"
         d="m 142.19512,27.000002 c -82.954267,65.948169 15.83857,93.516468 0,139.999998"
         inkscape:connector-curvature="0" />
      <path
         id="path864"
         style="opacity:1;fill:none;stroke:#4f4f4f;stroke-width:1.22181571;stroke-linecap:butt;stroke-linejoin:miter;stroke-miterlimit:4;stroke-dasharray:none;stroke-opacity:1"
         d="m 138.78049,27.000002 c -81.733742,64.980182 13.4001,93.761688 0,139.999998"
         inkscape:connector-curvature="0" />
      <path
         id="path866"
         style="opacity:1;fill:none;stroke:#515151;stroke-width:1.2562331;stroke-linecap:butt;stroke-linejoin:miter;stroke-miterlimit:4;stroke-dasharray:none;stroke-opacity:1"
         d="m 135.36585,27.000002 c -80.513208,64.012194 10.96164,94.006908 0,139.999998"
         inkscape:connector-curvature="0" />
      <path
         id="path868"
         style="opacity:1;fill:none;stroke:#535353;stroke-width:1.29065037;stroke-linecap:butt;stroke-linejoin:miter;stroke-miterlimit:4;stroke-dasharray:none;stroke-opacity:1"
         d="m 131.95122,27.000002 c -79.292684,63.044206 8.52317,94.252138 0,139.999998"
         inkscape:connector-curvature="0" />
      <path
         id="path870"
         style="opacity:1;fill:none;stroke:#555555;stroke-width:1.32506776;stroke-linecap:butt;stroke-linejoin:miter;stroke-miterlimit:4;stroke-dasharray:none;stroke-opacity:1"
         d="m 128.53659,27.000002 c -78.072159,62.076218 6.0847,94.497358 0,139.999998"
         inkscape:connector-curvature="0" />
      <path
         id="path872"
         style="opacity:1;fill:none;stroke:#575757;stroke-width:1.35948515;stroke-linecap:butt;stroke-linejoin:miter;stroke-miterlimit:4;stroke-dasharray:none;stroke-opacity:1"
         d="m 125.12195,27.000002 c -76.851625,61.108231 3.64624,94.742578 0,139.999998"
         inkscape:connector-curvature="0" />
      <path
         id="path874"
         style="opacity:1;fill:none;stroke:#595959;stroke-width:1.39390242;stroke-linecap:butt;stroke-linejoin:miter;stroke-miterlimit:4;stroke-dasharray:none;stroke-opacity:1"
         d="m 121.70732,27.000002 c -75.631101,60.140243 1.20777,94.987808 0,139.999998"
         inkscape:connector-curvature="0" />
      <path
         id="path876"
         style="opacity:1;fill:none;stroke:#5a5a5a;stroke-width:1.42831981;stroke-linecap:butt;stroke-linejoin:miter;stroke-miterlimit:4;stroke-dasharray:none;stroke-opacity:1"
         d="m 118.29268,27.000002 c -74.410566,59.172255 -1.23069,95.233028 0,139.999998"
         inkscape:connector-curvature="0" />
      <path
         id="path878"
         style="opacity:1;fill:none;stroke:#5c5c5c;stroke-width:1.46273708;stroke-linecap:butt;stroke-linejoin:miter;stroke-miterlimit:4;stroke-dasharray:none;stroke-opacity:1"
         d="m 114.87805,27.000002 c -73.190042,58.204267 -3.66916,95.478258 0,139.999998"
         inkscape:connector-curvature="0" />
      <path
         id="path880"
         style="opacity:1;fill:none;stroke:#5e5e5e;stroke-width:1.49715447;stroke-linecap:butt;stroke-linejoin:miter;stroke-miterlimit:4;stroke-dasharray:none;stroke-opacity:1"
         d="m 111.46341,27.000002 c -71.969508,57.23628 -6.10762,95.723478 0,139.999998"
         inkscape:connector-curvature="0" />
      <path
         id="path882"
         style="opacity:1;fill:none;stroke:#606060;stroke-width:1.53157187;stroke-linecap:butt;stroke-linejoin:miter;stroke-miterlimit:4;stroke-dasharray:none;stroke-opacity:1"
         d="M 108.04878,27.000002 C 37.299797,83.268294 99.502692,122.9687 108.04878,167"
         inkscape:connector-curvature="0" />
      <path
         id="path884"
         style="opacity:1;fill:none;stroke:#626262;stroke-width:1.56598914;stroke-linecap:butt;stroke-linejoin:miter;stroke-miterlimit:4;stroke-dasharray:none;stroke-opacity:1"
         d="M 104.63415,27.000002 C 35.105691,82.300306 93.649592,123.21393 104.63415,167"
         inkscape:connector-curvature="0" />
      <path
         id="path886"
         style="opacity:1;fill:none;stroke:#646464;stroke-width:1.60040653;stroke-linecap:butt;stroke-linejoin:miter;stroke-miterlimit:4;stroke-dasharray:none;stroke-opacity:1"
         d="M 101.21951,27.000002 C 32.911585,81.332318 87.796493,123.45915 101.21951,167"
         inkscape:connector-curvature="0" />
      <path
         id="path888"
         style="opacity:1;fill:none;stroke:#666666;stroke-width:1.6348238;stroke-linecap:butt;stroke-linejoin:miter;stroke-miterlimit:4;stroke-dasharray:none;stroke-opacity:1"
         d="M 97.804878,27.000002 C 30.71748,80.364331 81.943393,123.70437 97.804878,167"
         inkscape:connector-curvature="0" />
      <path
         id="path890"
         style="opacity:1;fill:none;stroke:#676767;stroke-width:1.66924119;stroke-linecap:butt;stroke-linejoin:miter;stroke-miterlimit:4;stroke-dasharray:none;stroke-opacity:1"
         d="M 94.390244,27.000002 C 28.523374,79.396343 76.090294,123.9496 94.390244,167"
         inkscape:connector-curvature="0" />
      <path
         id="path892"
         style="opacity:1;fill:none;stroke:#696969;stroke-width:1.70365858;stroke-linecap:butt;stroke-linejoin:miter;stroke-miterlimit:4;stroke-dasharray:none;stroke-opacity:1"
         d="M 90.97561,27.000002 C 26.329268,78.428355 70.237194,124.19482 90.97561,167"
         inkscape:connector-curvature="0" />
      <path
         id="path894"
         style="opacity:1;fill:none;stroke:#6b6b6b;stroke-width:1.73807585;stroke-linecap:butt;stroke-linejoin:miter;stroke-miterlimit:4;stroke-dasharray:none;stroke-opacity:1"
         d="M 87.560976,27.000002 C 24.135163,77.460367 64.384095,124.44004 87.560976,167"
         inkscape:connector-curvature="0" />
      <path
         id="path896"
         style="opacity:1;fill:none;stroke:#6d6d6d;stroke-width:1.77249324;stroke-linecap:butt;stroke-linejoin:miter;stroke-miterlimit:4;stroke-dasharray:none;stroke-opacity:1"
         d="M 84.146341,27.000002 C 21.941057,76.49238 58.530995,124.68527 84.146341,167"
         inkscape:connector-curvature="0" />
      <path
         id="path898"
         style="opacity:1;fill:none;stroke:#6f6f6f;stroke-width:1.80691051;stroke-linecap:butt;stroke-linejoin:miter;stroke-miterlimit:4;stroke-dasharray:none;stroke-opacity:1"
         d="M 80.731707,27.000002 C 19.746951,75.524392 52.677896,124.93049 80.731707,167"
         inkscape:connector-curvature="0" />
      <path
         id="path900"
         style="opacity:1;fill:none;stroke:#717171;stroke-width:1.84132791;stroke-linecap:butt;stroke-linejoin:miter;stroke-miterlimit:4;stroke-dasharray:none;stroke-opacity:1"
         d="M 77.317073,27.000002 C 17.552845,74.556404 46.824796,125.17571 77.317073,167"
         inkscape:connector-curvature="0" />
      <path
         id="path902"
         style="opacity:1;fill:none;stroke:#737373;stroke-width:1.8757453;stroke-linecap:butt;stroke-linejoin:miter;stroke-miterlimit:4;stroke-dasharray:none;stroke-opacity:1"
         d="M 73.902439,27.000002 C 15.35874,73.588416 40.971697,125.42094 73.902439,167"
         inkscape:connector-curvature="0" />
      <path
         id="path904"
         style="opacity:1;fill:none;stroke:#747474;stroke-width:1.91016257;stroke-linecap:butt;stroke-linejoin:miter;stroke-miterlimit:4;stroke-dasharray:none;stroke-opacity:1"
         d="M 70.487805,27.000002 C 13.164634,72.620429 35.118597,125.66616 70.487805,167"
         inkscape:connector-curvature="0" />
      <path
         id="path906"
         style="opacity:1;fill:none;stroke:#767676;stroke-width:1.94457996;stroke-linecap:butt;stroke-linejoin:miter;stroke-miterlimit:4;stroke-dasharray:none;stroke-opacity:1"
         d="M 67.073171,27.000002 C 10.970528,71.652441 29.265498,125.91138 67.073171,167"
         inkscape:connector-curvature="0" />
      <path
         id="path908"
         style="opacity:1;fill:none;stroke:#787878;stroke-width:1.97899735;stroke-linecap:butt;stroke-linejoin:miter;stroke-miterlimit:4;stroke-dasharray:none;stroke-opacity:1"
         d="M 63.658537,27.000002 C 8.7764227,70.684453 23.412398,126.15661 63.658537,167"
         inkscape:connector-curvature="0" />
      <path
         id="path910"
         style="opacity:1;fill:none;stroke:#7a7a7a;stroke-width:2.01341462;stroke-linecap:butt;stroke-linejoin:miter;stroke-miterlimit:4;stroke-dasharray:none;stroke-opacity:1"
         d="M 60.243902,27.000002 C 6.582317,69.716465 17.559299,126.40183 60.243902,167"
         inkscape:connector-curvature="0" />
      <path
         id="path912"
         style="opacity:1;fill:none;stroke:#7c7c7c;stroke-width:2.04783201;stroke-linecap:butt;stroke-linejoin:miter;stroke-miterlimit:4;stroke-dasharray:none;stroke-opacity:1"
         d="M 56.829268,27.000002 C 4.3882114,68.748478 11.706199,126.64705 56.829268,167"
         inkscape:connector-curvature="0" />
      <path
         id="path914"
         style="opacity:1;fill:none;stroke:#7e7e7e;stroke-width:2.0822494;stroke-linecap:butt;stroke-linejoin:miter;stroke-miterlimit:4;stroke-dasharray:none;stroke-opacity:1"
         d="M 53.414634,27.000002 C 2.1941057,67.78049 5.8530995,126.89228 53.414634,167"
         inkscape:connector-curvature="0" />
    </g>
    <text
       xml:space="preserve"
       style="font-style:normal;font-weight:normal;font-size:105.83332825px;line-height:1.25;font-family:sans-serif;letter-spacing:0px;word-spacing:0px;fill:#000000;fill-opacity:1;stroke:none;stroke-width:0.26458332"
       x="18.520834"
       y="143.54167"
       id="text966"
       clip-path="url(#clipPath1020)"><tspan
         sodipodi:role="line"
         id="tspan964"
         x="18.520834"
         y="240.09662"
         style="stroke-width:0.26458332"></tspan><tspan
         sodipodi:role="line"
         x="18.520834"
         y="372.38828"
         style="stroke-width:0.26458332"
         id="tspan968" /></text>
    <g
       aria-label="IF"
       style="font-style:normal;font-weight:normal;font-size:105.83333588px;line-height:1.25;font-family:sans-serif;letter-spacing:0px;word-spacing:0px;fill:#000000;fill-opacity:1;stroke:none;stroke-width:0.26458332"
       id="text972"
       inkscape:label="IF">
      <path
         inkscape:connector-curvature="0"
         d="M 122.64885,73.044671 H 83.736492 v 21.704102 h 33.434648 v 9.095057 H 83.736492 v 37.052 H 73.504558 V 63.949619 H 122.64885 Z M 55.986248,140.89583 20,137 25.600505,133.04101 H 35.67741 V 71.804437 H 25.600505 v -7.854818 h 30.385743 v 7.854818 H 45.909344 v 61.236573 h 10.076904 z"
         style="font-size:105.83333588px;stroke-width:2.82222222;fill:none;stroke:#b2b2b2;stroke-opacity:1;stroke-miterlimit:4;stroke-dasharray:none"
         id="path1018" />
    </g>
  </g>
</svg>
